<?xml version="1.0" encoding="UTF-8" standalone="no"?>
<!-- Created with Inkscape (http://www.inkscape.org/) -->

<svg
   width="60mm"
   height="20mm"
   viewBox="0 0 60 20"
   version="1.1"
   id="svg5"
   inkscape:version="1.1.1 (3bf5ae0d25, 2021-09-20)"
   sodipodi:docname="brand.svg"
   inkscape:export-filename="/home/shahriar/Desktop/themes/brand.png"
   inkscape:export-xdpi="300"
   inkscape:export-ydpi="300"
   xmlns:inkscape="http://www.inkscape.org/namespaces/inkscape"
   xmlns:sodipodi="http://sodipodi.sourceforge.net/DTD/sodipodi-0.dtd"
   xmlns="http://www.w3.org/2000/svg"
   xmlns:svg="http://www.w3.org/2000/svg">
  <sodipodi:namedview
     id="namedview7"
     pagecolor="#ffffff"
     bordercolor="#666666"
     borderopacity="1.0"
     inkscape:pageshadow="2"
     inkscape:pageopacity="0.0"
     inkscape:pagecheckerboard="0"
     inkscape:document-units="mm"
     showgrid="false"
     inkscape:zoom="2.9576319"
     inkscape:cx="81.484109"
     inkscape:cy="70.15748"
     inkscape:window-width="1920"
     inkscape:window-height="1015"
     inkscape:window-x="1920"
     inkscape:window-y="0"
     inkscape:window-maximized="1"
     inkscape:current-layer="layer1" />
  <defs
     id="defs2" />
  <g
     inkscape:label="Layer 1"
     inkscape:groupmode="layer"
     id="layer1">
    <g
       aria-label="Finware.ir"
       transform="scale(0.83000233,1.2048159)"
       id="text13006"
       style="font-size:16.3559px;line-height:1.25;font-family:Roboto;-inkscape-font-specification:Roboto;fill:#3279fc;stroke-width:0.408898">
      <path
         d="M 7.4389751,9.4107806 H 3.1822883 V 14.09074 H 0.4829259 V 2.4627177 H 8.2535756 V 4.5391503 H 3.1822883 V 7.334348 h 4.2566868 z"
         id="path3191" />
      <path
         d="M 12.27866,14.09074 H 9.5713114 V 5.4495861 H 12.27866 Z m 0,-10.64571 H 9.5713114 V 1.6321446 H 12.27866 Z"
         id="path3193" />
      <path
         d="m 16.415553,5.4495861 0.103821,1.2139144 q 0.423273,-0.6468886 1.046203,-1.0062711 0.62293,-0.3673689 1.389613,-0.3673689 1.269818,0 1.980597,0.8625182 0.718765,0.8625181 0.718765,2.7392937 V 14.09074 H 18.95519 V 8.8836862 q 0,-0.8225868 -0.263548,-1.1659968 -0.263547,-0.3513963 -0.766682,-0.3513963 -0.431259,0 -0.774669,0.1517393 -0.34341,0.1517393 -0.575013,0.4312591 V 14.09074 H 13.883902 V 5.4495861 Z"
         id="path3195" />
      <path
         d="m 30.543281,10.281285 h 0.04792 L 31.44573,5.4495861 h 2.571582 L 31.988797,14.09074 H 29.704721 L 28.299136,9.6663415 h -0.04792 L 26.837647,14.09074 H 24.561558 L 22.525056,5.4495861 h 2.571582 l 0.862518,4.8636439 h 0.04792 l 1.413572,-4.8636439 h 1.701077 z"
         id="path3197" />
      <path
         d="M 39.975079,14.082754 Q 39.823339,13.81122 39.711531,13.46781 39.60771,13.1244 39.551806,12.749045 q -0.351396,0.68682 -0.870505,1.102107 -0.511121,0.4073 -1.341695,0.4073 -1.357667,0 -2.116364,-0.694806 -0.75071,-0.702793 -0.75071,-1.908721 0,-1.285791 0.96634,-1.9805972 0.96634,-0.7027926 2.930964,-0.7027926 h 1.110093 V 8.3565917 q 0,-0.5510532 -0.263547,-0.8465456 -0.263547,-0.2954923 -0.806614,-0.2954923 -0.471191,0 -0.702793,0.2236158 -0.223615,0.2156296 -0.223615,0.6788338 l -2.6195,-0.00799 -0.01597,-0.047918 q -0.0559,-1.1819693 0.982313,-1.972611 1.046202,-0.7986279 2.755266,-0.7986279 1.605242,0 2.595541,0.7986279 0.998285,0.798628 0.998285,2.2840759 v 3.2584017 q 0,0.68682 0.111808,1.277805 0.119794,0.590985 0.351396,1.181969 z m -1.900735,-1.748995 q 0.495149,0 0.870505,-0.231602 0.383341,-0.231602 0.53508,-0.551054 v -1.142038 h -1.086134 q -0.646888,0 -0.934394,0.311465 -0.287506,0.311465 -0.287506,0.790642 0,0.367369 0.247574,0.598971 0.255561,0.223616 0.654875,0.223616 z"
         id="path3199" />
      <path
         d="m 48.432545,7.7496345 -0.878491,-0.00799 q -0.463204,0 -0.758696,0.1756982 -0.295493,0.1677118 -0.439246,0.4791767 V 14.09074 H 43.65675 V 5.4495861 h 2.539637 l 0.09584,1.2698184 q 0.271533,-0.6788337 0.718765,-1.0541889 0.447232,-0.3753551 1.046203,-0.3753551 0.183684,0 0.327437,0.023959 0.143753,0.023959 0.303479,0.071877 z"
         id="path3201" />
      <path
         d="m 53.104521,14.258452 q -1.964625,0 -3.082704,-1.189956 -1.110093,-1.189955 -1.110093,-3.010827 V 9.7541906 q 0,-1.9805972 1.046203,-3.2264568 1.054189,-1.2458596 3.042772,-1.2378733 1.748995,0 2.707349,1.0462026 0.96634,1.0462026 0.96634,2.8670742 v 1.4135717 h -4.951493 l -0.01597,0.04792 q 0.06389,0.678834 0.503136,1.102107 0.439245,0.415286 1.261832,0.415286 0.774669,0 1.285791,-0.12778 0.519108,-0.12778 1.181969,-0.4073 l 0.646889,1.645173 q -0.55904,0.407301 -1.501421,0.68682 -0.942381,0.27952 -1.980597,0.27952 z M 53.000699,7.3662931 q -0.646888,0 -0.958353,0.4152865 -0.303479,0.4073003 -0.351397,1.1100928 l 0.01597,0.039931 h 2.331993 V 8.7239606 q 0,-0.6708475 -0.239588,-1.0142575 -0.231602,-0.34341 -0.798628,-0.34341 z"
         id="path3203" />
      <path
         d="m 60.827253,14.09074 h -2.691376 v -2.268103 h 2.691376 z"
         id="path3205" />
      <path
         d="M 65.587073,14.09074 H 62.879724 V 5.4495861 h 2.707349 z m 0,-10.64571 H 62.879724 V 1.6321446 h 2.707349 z"
         id="path3207" />
      <path
         d="m 72.016026,7.7496345 -0.878491,-0.00799 q -0.463204,0 -0.758697,0.1756982 -0.295492,0.1677118 -0.439245,0.4791767 V 14.09074 H 67.240231 V 5.4495861 h 2.539636 l 0.09584,1.2698184 Q 70.147236,6.0405708 70.594468,5.6652156 71.0417,5.2898605 71.64067,5.2898605 q 0.183685,0 0.327438,0.023959 0.143753,0.023959 0.303479,0.071877 z"
         id="path3209" />
    </g>
  </g>
</svg>
