<?xml version="1.0" encoding="UTF-8" standalone="no"?>
<!-- Created with Inkscape (http://www.inkscape.org/) -->

<svg
   width="265.84671mm"
   height="169.10579mm"
   viewBox="0 0 265.84671 169.10579"
   version="1.1"
   id="svg5"
   inkscape:version="1.1.1 (3bf5ae0d25, 2021-09-20)"
   sodipodi:docname="Data-report2.svg"
   inkscape:export-filename="/home/shahriar/Desktop/themes/brand.png"
   inkscape:export-xdpi="300"
   inkscape:export-ydpi="300"
   xmlns:inkscape="http://www.inkscape.org/namespaces/inkscape"
   xmlns:sodipodi="http://sodipodi.sourceforge.net/DTD/sodipodi-0.dtd"
   xmlns="http://www.w3.org/2000/svg"
   xmlns:svg="http://www.w3.org/2000/svg">
  <sodipodi:namedview
     id="namedview7"
     pagecolor="#ffffff"
     bordercolor="#666666"
     borderopacity="1.0"
     inkscape:pageshadow="2"
     inkscape:pageopacity="0.0"
     inkscape:pagecheckerboard="0"
     inkscape:document-units="mm"
     showgrid="false"
     inkscape:zoom="0.5228404"
     inkscape:cx="348.09858"
     inkscape:cy="71.723609"
     inkscape:window-width="1920"
     inkscape:window-height="1015"
     inkscape:window-x="1920"
     inkscape:window-y="0"
     inkscape:window-maximized="1"
     inkscape:current-layer="g1353"
     showguides="true"
     inkscape:guide-bbox="true"
     fit-margin-top="0"
     fit-margin-left="0"
     fit-margin-right="0"
     fit-margin-bottom="0">
    <sodipodi:guide
       position="160.7536,0.33192355"
       orientation="0,-1"
       id="guide3796" />
  </sodipodi:namedview>
  <defs
     id="defs2" />
  <g
     inkscape:label="Layer 1"
     inkscape:groupmode="layer"
     id="layer1"
     transform="translate(186.87529,37.807604)">
    <g
       id="g1353"
       transform="matrix(0.26458333,0,0,0.26458333,-194.17086,-43.591396)">
      <path
         d="m 592.4,133.21 a 121,121 0 0 1 22.78,71 c 0,23.84 -5,47.49 -16.9,66.25 l 52.34,33.83 c 18.44,-28.59 27,-63.53 27,-100.08 A 183.37,183.37 0 0 0 642.26,95.9 Z"
         fill="#a7a9ac"
         id="path976"
         style="fill:#6dc82a;fill-opacity:1" />
      <rect
         x="556.8869"
         y="493.49841"
         width="122.52"
         height="50.990002"
         fill="#a7a9ac"
         id="rect978" />
      <path
         d="m 27.59,550.78 c 0,0 -2.75,-46.78 63.41,-53.26 0,0 82.66,1.83 104.7,-97.35 0,0 22.35,-91.88 83.55,-82.32 a 34.73,34.73 0 0 1 18.11,8.75 c 5.76,5.28 14.39,14.43 25.07,29.49 0,0 40.41,63.36 94.6,26.63 0,0 24.79,-18.37 40.41,-35.82 v 203.88 z"
         fill="#cccccc"
         id="path980" />
      <rect
         x="70.879997"
         y="546.01001"
         width="1.59"
         height="4.77"
         fill="#5670a0"
         id="rect982" />
      <path
         d="m 72.47,536.22 h -1.59 v -9.79 h 1.59 z m 0,-19.57 h -1.59 v -9.79 h 1.59 z m 0,-19.58 h -1.59 v -9.79 h 1.59 z"
         fill="#5670a0"
         id="path984" />
      <rect
         x="70.879997"
         y="472.72"
         width="1.59"
         height="4.77"
         fill="#5670a0"
         id="rect986" />
      <rect
         x="136.09"
         y="546.01001"
         width="1.59"
         height="4.77"
         fill="#5670a0"
         id="rect988" />
      <path
         d="m 137.68,536.26 h -1.59 v -9.75 h 1.59 z m 0,-19.5 h -1.59 V 507 h 1.59 z m 0,-19.51 h -1.59 v -9.75 h 1.59 z m 0,-19.5 h -1.59 V 468 h 1.59 z m 0,-19.51 h -1.59 v -9.75 h 1.59 z"
         fill="#5670a0"
         id="path990" />
      <rect
         x="136.09"
         y="433.97"
         width="1.59"
         height="4.77"
         fill="#5670a0"
         id="rect992" />
      <rect
         x="200.37"
         y="546.01001"
         width="1.59"
         height="4.77"
         fill="#5670a0"
         id="rect994" />
      <path
         d="m 202,536.84 h -1.59 v -9.16 H 202 Z m 0,-18.33 h -1.59 v -9.17 H 202 Z m 0,-18.34 h -1.59 V 491 H 202 Z m 0,-18.34 h -1.59 v -9.16 H 202 Z m 0,-18.33 h -1.59 v -9.17 H 202 Z m 0,-18.34 h -1.59 V 436 H 202 Z m 0,-18.34 h -1.59 v -9.16 H 202 Z m 0,-18.33 h -1.59 v -9.17 H 202 Z m 0,-18.34 h -1.59 V 381 H 202 Z m 0,-18.33 h -1.59 v -9.17 H 202 Z m 0,-18.34 h -1.59 v -9.17 H 202 Z"
         fill="#5670a0"
         id="path996" />
      <rect
         x="200.37"
         y="330.37"
         width="1.59"
         height="4.77"
         fill="#5670a0"
         id="rect998" />
      <rect
         x="265.57999"
         y="546.01001"
         width="1.59"
         height="4.77"
         fill="#5670a0"
         id="rect1000" />
      <path
         d="m 267.17,536.47 h -1.59 v -9.55 h 1.59 z m 0,-19.09 h -1.59 v -9.55 h 1.59 z m 0,-19.09 h -1.59 v -9.55 h 1.59 z m 0,-19.09 h -1.59 v -9.55 h 1.59 z m 0,-19.09 h -1.59 v -9.55 h 1.59 z m 0,-19.09 h -1.59 v -9.54 h 1.59 z m 0,-19.09 h -1.59 v -9.54 h 1.59 z m 0,-19.09 h -1.59 v -9.54 h 1.59 z m 0,-19.09 h -1.59 v -9.54 h 1.59 z m 0,-19.09 h -1.59 v -9.54 h 1.59 z m 0,-19.09 h -1.59 V 336 h 1.59 z m 0,-19.09 h -1.59 v -9.54 h 1.59 z m 0,-19.09 h -1.59 v -9.54 h 1.59 z"
         fill="#5670a0"
         id="path1002" />
      <rect
         x="265.57999"
         y="283.53"
         width="1.59"
         height="4.77"
         fill="#5670a0"
         id="rect1004" />
      <rect
         x="328.95001"
         y="546.01001"
         width="1.59"
         height="4.77"
         fill="#5670a0"
         id="rect1006" />
      <path
         d="M 330.54,536.45 H 329 v -9.56 h 1.59 z m 0,-19.12 H 329 v -9.56 h 1.59 z m 0,-19.12 H 329 v -9.56 h 1.59 z m 0,-19.12 H 329 v -9.56 h 1.59 z m 0,-19.12 H 329 v -9.56 h 1.59 z m 0,-19.12 H 329 v -9.56 h 1.59 z m 0,-19.12 H 329 v -9.56 h 1.59 z m 0,-19.12 H 329 v -9.56 h 1.59 z m 0,-19.12 H 329 v -9.56 h 1.59 z m 0,-19.12 H 329 v -9.56 h 1.59 z"
         fill="#5670a0"
         id="path1008" />
      <rect
         x="328.95001"
         y="340.47"
         width="1.59"
         height="4.77"
         fill="#5670a0"
         id="rect1010" />
      <line
         x1="394.03"
         y1="550.78003"
         x2="394.03"
         y2="373.54001"
         fill="none"
         stroke="#ed1c24"
         stroke-miterlimit="10"
         id="line1012" />
      <path
         d="m 68.78,438.61 v 19.57 h -5.27 v -15.13 h -2.9 v -4.44 z"
         fill="#5670a0"
         id="path1014" />
      <path
         d="m 71.94,448.42 c 0,-6.27 3.35,-10.28 8.57,-10.28 5.22,0 8.57,4 8.57,10.28 0,6.28 -3.37,10.28 -8.57,10.28 -5.2,0 -8.57,-4.03 -8.57,-10.28 z m 11.77,0 c 0,-3.61 -1.15,-5.63 -3.2,-5.63 -2.05,0 -3.2,2 -3.2,5.61 0,3.61 1.14,5.62 3.2,5.62 2.06,0 3.2,-2.02 3.2,-5.58 z"
         fill="#5670a0"
         id="path1016" />
      <path
         d="m 135.46,414.62 v 4.65 H 120.9 v -1.2 c 7.88,-9.28 9,-10.78 9,-12.46 a 1.66,1.66 0 0 0 -1.7,-1.78 1.71,1.71 0 0 0 -1.77,1.92 v 0.38 h -5.17 v -0.36 c 0,-4 2.59,-6.57 6.87,-6.57 4.28,0 7,2.55 7,6.22 0,2.46 -0.91,4.36 -5.09,9.2 z"
         fill="#5670a0"
         id="path1018" />
      <path
         d="m 137.85,409.5 c 0,-6.27 3.35,-10.27 8.56,-10.27 5.21,0 8.57,4 8.57,10.27 0,6.27 -3.36,10.28 -8.57,10.28 -5.21,0 -8.56,-4.03 -8.56,-10.28 z m 11.77,0 c 0,-3.6 -1.16,-5.63 -3.21,-5.63 -2.05,0 -3.2,2 -3.2,5.61 0,3.61 1.14,5.62 3.2,5.62 2.06,0 3.21,-1.97 3.21,-5.58 z"
         fill="#5670a0"
         id="path1020" />
      <path
         d="m 193.62,302.68 c 4.39,0 7.4,2.68 7.4,6.52 0,3.84 -3.02,6.8 -7.32,6.8 -4.3,0 -7.27,-2.81 -7.27,-6.78 h 5 a 2.24,2.24 0 1 0 4.48,0 2.28,2.28 0 0 0 -2.42,-2.36 H 187.4 L 186.9,306.21 188,296 h 11.61 v 4.46 h -7.57 l -0.25,2.23 z"
         fill="#5670a0"
         id="path1022" />
      <path
         d="m 203.12,305.8 c 0,-6.27 3.35,-10.28 8.57,-10.28 5.22,0 8.56,4 8.56,10.28 0,6.28 -3.36,10.27 -8.56,10.27 -5.2,0 -8.57,-4.02 -8.57,-10.27 z m 11.77,0 c 0,-3.6 -1.16,-5.63 -3.2,-5.63 -2.04,0 -3.2,2 -3.2,5.62 0,3.62 1.13,5.61 3.2,5.61 2.07,0 3.2,-1.98 3.2,-5.59 z"
         fill="#5670a0"
         id="path1024" />
      <path
         d="m 265.36,265.6 c 0,4.29 -3.16,7.25 -7.76,7.25 -4.6,0 -7.79,-3 -7.79,-7.22 0,-2 0.6,-4 2.24,-6.74 l 3.6,-6.07 h 5.65 l -3.88,6.47 a 9.11,9.11 0 0 1 1.29,-0.09 c 3.92,0 6.65,2.62 6.65,6.4 z m -5,0 a 2.74,2.74 0 1 0 -2.73,2.75 2.63,2.63 0 0 0 2.69,-2.75 z"
         fill="#5670a0"
         id="path1026" />
      <path
         d="m 274.12,259.52 c 4.38,0 7.39,2.68 7.39,6.52 0,3.84 -3,6.81 -7.31,6.81 -4.31,0 -7.27,-2.81 -7.27,-6.78 h 5 a 2.18,2.18 0 0 0 2.25,2.28 2.2,2.2 0 0 0 2.22,-2.31 2.28,2.28 0 0 0 -2.42,-2.37 h -6.09 l -0.5,-0.64 1.1,-10.21 h 11.6 v 4.46 h -7.57 l -0.24,2.24 z"
         fill="#5670a0"
         id="path1028" />
      <path
         d="m 334,326.06 h -1.77 v 3.52 h -5 v -3.52 h -9.4 v -1 L 324.06,310 h 5.2 l -4.85,11.66 h 3.13 l 1.15,-4.31 h 3.52 v 4.31 H 334 Z"
         fill="#5670a0"
         id="path1030" />
      <path
         d="m 342.88,316.7 c 4.39,0 7.4,2.68 7.4,6.52 0,3.84 -3,6.81 -7.32,6.81 -4.32,0 -7.27,-2.81 -7.27,-6.78 h 5 a 2.18,2.18 0 0 0 2.25,2.28 2.21,2.21 0 0 0 2.23,-2.31 2.28,2.28 0 0 0 -2.42,-2.37 h -6.09 l -0.5,-0.64 1.09,-10.2 h 11.61 v 4.46 h -7.57 l -0.25,2.23 z"
         fill="#5670a0"
         id="path1032" />
      <text
         transform="translate(380.26,360.31)"
         font-size="29.43px"
         font-family="Mont-HeavyDEMO, Mont"
         font-weight="800"
         id="text1034">30</text>
      <g
         id="g2250"
         transform="translate(719.05433,25.183004)">
        <rect
           x="32.599998"
           y="255.64999"
           width="91.011024"
           height="91.010002"
           fill="#bcbec0"
           id="rect1036"
           style="fill:#3279fc;fill-opacity:1" />
        <path
           d="M 77,330.24 A 28.43,28.43 0 1 1 105.43,301.82 28.45,28.45 0 0 1 77,330.24 Z M 77,275 A 26.84,26.84 0 1 0 103.84,301.84 26.87,26.87 0 0 0 77,275 Z"
           fill="#ffffff"
           id="path1038" />
        <polygon
           points="94.96,322.83 93.72,323.83 76.21,302.1 76.21,274.19 77.8,274.19 77.8,301.54 "
           fill="#ffffff"
           id="polygon1040" />
        <rect
           x="75.32"
           y="294.41"
           width="27.639999"
           height="1.59"
           transform="rotate(-28.59,89.149014,295.23271)"
           fill="#ffffff"
           id="rect1042" />
      </g>
      <rect
         x="522.89691"
         y="402.84842"
         width="186.25"
         height="100.56"
         rx="5.3400002"
         fill="#cccccc"
         id="rect1044" />
      <circle
         cx="541.94696"
         cy="436.09842"
         r="7.3499999"
         fill="#ffffff"
         id="circle1046" />
      <circle
         cx="541.94696"
         cy="467.90842"
         r="7.3499999"
         fill="#ffffff"
         id="circle1048" />
      <rect
         x="559.42694"
         y="427.94843"
         width="40.900002"
         height="1.59"
         fill="#ffffff"
         id="rect1050" />
      <rect
         x="559.42694"
         y="440.90842"
         width="40.900002"
         height="1.59"
         fill="#ffffff"
         id="rect1052" />
      <rect
         x="559.42694"
         y="463.84842"
         width="40.900002"
         height="1.59"
         fill="#ffffff"
         id="rect1054" />
      <rect
         x="559.42694"
         y="476.81842"
         width="40.900002"
         height="1.59"
         fill="#ffffff"
         id="rect1056" />
      <circle
         cx="628.74695"
         cy="436.04843"
         r="7.3499999"
         fill="#ffffff"
         id="circle1058" />
      <circle
         cx="628.74695"
         cy="467.85843"
         r="7.3499999"
         fill="#ffffff"
         id="circle1060" />
      <rect
         x="646.22693"
         y="427.89844"
         width="40.900002"
         height="1.59"
         fill="#ffffff"
         id="rect1062" />
      <rect
         x="646.22693"
         y="440.85843"
         width="40.900002"
         height="1.59"
         fill="#ffffff"
         id="rect1064" />
      <rect
         x="646.22693"
         y="463.80841"
         width="40.900002"
         height="1.59"
         fill="#ffffff"
         id="rect1066" />
      <rect
         x="646.22693"
         y="476.76843"
         width="40.900002"
         height="1.59"
         fill="#ffffff"
         id="rect1068" />
      <rect
         x="681.82532"
         y="111.11636"
         width="198.84851"
         height="118.08"
         rx="4.6900001"
         fill="#cccccc"
         id="rect1070" />
      <rect
         x="697.89526"
         y="172.83636"
         width="8.8599997"
         height="37.150002"
         rx="4.4299998"
         fill="#bcbec0"
         id="rect1072" />
      <rect
         x="720.0553"
         y="156.81636"
         width="8.8599997"
         height="53.169998"
         rx="4.4299998"
         fill="#a7a9ac"
         id="rect1074" />
      <rect
         x="743.23529"
         y="145.56636"
         width="8.8599997"
         height="64.419998"
         rx="4.4299998"
         fill="#bcbec0"
         id="rect1076" />
      <rect
         x="765.72528"
         y="125.79636"
         width="8.8599997"
         height="84.190002"
         rx="4.4299998"
         fill="#a7a9ac"
         id="rect1078" />
      <rect
         x="788.22528"
         y="152.84637"
         width="8.8599997"
         height="57.139999"
         rx="4.4299998"
         fill="#bcbec0"
         id="rect1080" />
      <rect
         x="812.08527"
         y="162.26637"
         width="8.8599997"
         height="47.720001"
         rx="4.4299998"
         fill="#a7a9ac"
         id="rect1082" />
      <rect
         x="835.26532"
         y="175.90637"
         width="8.8599997"
         height="34.080002"
         rx="4.4299998"
         fill="#bcbec0"
         id="rect1084" />
      <rect
         x="857.75531"
         y="151.02637"
         width="8.8599997"
         height="58.970001"
         rx="4.4299998"
         fill="#a7a9ac"
         id="rect1086" />
      <rect
         x="691.08527"
         y="128.18637"
         width="41.919998"
         height="5.4499998"
         rx="2.73"
         fill="#a7a9ac"
         id="rect1088" />
      <rect
         x="691.08527"
         y="140.11636"
         width="41.919998"
         height="5.4499998"
         rx="2.73"
         fill="#a7a9ac"
         id="rect1090" />
      <rect
         x="828.78528"
         y="125.79636"
         width="37.830002"
         height="19.77"
         rx="5.5700002"
         fill="#a7a9ac"
         id="rect1092" />
      <path
         d="M 388.25,263.31 A 121.45,121.45 0 0 1 494.81,83.67 l 0.57,-61.81 A 183.29,183.29 0 0 0 333.79,291.53 Z"
         fill="#bcbec0"
         id="path1094"
         style="fill:#91dc5a;fill-opacity:1" />
      <path
         d="m 599,269.33 a 121.71,121.71 0 0 1 -211,-6.87 l -54.31,29.3 a 183.94,183.94 0 0 0 317.68,11.38 z"
         fill="#cccccc"
         id="path1096" />
      <rect
         x="410"
         y="139.28"
         width="34.77"
         height="60.5"
         rx="5.1399999"
         fill="#d1d3d4"
         id="rect1098" />
      <rect
         x="546.16998"
         y="139.28"
         width="34.77"
         height="60.5"
         rx="5.1399999"
         fill="#5670a0"
         id="rect1100" />
      <rect
         x="460.45001"
         y="143.25"
         width="68.169998"
         height="1.59"
         fill="#d1d3d4"
         id="rect1102" />
      <rect
         x="461.29999"
         y="155.64"
         width="68.169998"
         height="1.59"
         fill="#d1d3d4"
         id="rect1104" />
      <rect
         x="460.19"
         y="168.03999"
         width="68.169998"
         height="1.59"
         fill="#d1d3d4"
         id="rect1106" />
      <rect
         x="460.19"
         y="180.39999"
         width="68.169998"
         height="1.59"
         fill="#d1d3d4"
         id="rect1108" />
      <rect
         x="460.19"
         y="192.77"
         width="68.169998"
         height="1.59"
         fill="#d1d3d4"
         id="rect1110" />
      <rect
         x="407.28"
         y="232.55"
         width="68.169998"
         height="1.59"
         fill="#5670a0"
         id="rect1114" />
      <rect
         x="407.28"
         y="244.37"
         width="68.169998"
         height="1.59"
         fill="#5670a0"
         id="rect1116" />
      <rect
         x="492.60001"
         y="216.08"
         width="88.339996"
         height="61.349998"
         rx="2.54"
         fill="#5670a0"
         id="rect1118" />
      <path
         d="M 642.26,95.9 A 183,183 0 0 0 495.1,21.9 l -0.57,61.81 a 121.25,121.25 0 0 1 98,49.69 z"
         fill="#d1d3d4"
         id="path1120"
         style="fill:#00665a;fill-opacity:1" />
      <circle
         cx="344.29999"
         cy="214.17999"
         r="12.01"
         fill="#d1d3d4"
         id="circle1122" />
      <circle
         cx="344.29999"
         cy="213.92"
         r="4.4299998"
         fill="#bcbec0"
         id="circle1124" />
      <path
         d="m 443.74,630 v 31 l 63.95,-0.3 c 7,-26.21 -35.56,-18.87 -35.56,-18.87 l 0.7,-11.9 z"
         fill="#3279fc"
         id="path1126" />
      <path
         d="m 471.51,631.26 c -0.13,0.3 -1.56,-0.13 -3.31,0 -1.75,0.13 -3.11,0.75 -3.29,0.47 -0.18,-0.28 1.14,-1.47 3.21,-1.59 2.07,-0.12 3.54,0.86 3.39,1.12 z"
         fill="#263238"
         id="path1128" />
      <polygon
         points="389.18,658.74 388.34,640.13 389.03,628.79 413.89,630.1 413.89,640.13 413.17,658.17 "
         fill="#3279fc"
         id="polygon1130" />
      <path
         d="m 470,398.35 -3.86,-5.16 -89.57,4.21 c 0,0 -1.73,27.83 -0.48,38 0.4,3.27 2.24,15.93 2.24,15.93 l 2.21,98.17 c 0.86,7.78 2.95,89.72 2.95,89.72 h 35.5 l 7.24,-131.35 c 0.77,-14.62 0.17,-34.19 0.9,-50.36 l 6,4.78 14.59,69.2 c 0,0 -1.78,24.79 -4,42.71 -3.47,28.33 -2.26,63.89 -2.26,63.89 l 36.44,0.59 c 0,0 2.08,-33.87 6,-61 l 6.11,-48.4 c 0,-5.43 -2.24,-18.49 -2.95,-27.39 z"
         fill="#5670a0"
         id="path1132" />
      <path
         d="m 433.09,462.16 c -3.37,-2.17 -6.15,-5.11 -9.66,-7.14 a 95.7,95.7 0 0 1 -9.19,-7.76 92.33,92.33 0 0 1 9.66,7.15 93.22,93.22 0 0 1 9.19,7.75 z"
         opacity="0.21"
         id="path1134" />
      <path
         d="M 497.14,310.44 A 78.46,78.46 0 0 1 495,302.3 c -0.1,-1.59 0,-8.1 0,-8.1 0,0 3.91,-8.63 5.23,-9.24 a 10,10 0 0 1 2.45,-0.8 l 3.59,-14.22 c 0,0 1.16,-2.95 3.09,-2.4 1.93,0.55 1.64,2.46 1.64,3.46 0,1 -1.68,12.35 -1.68,12.35 l 0.14,0.65 c 0,0 3.11,-1.35 4.28,0 a 8.71,8.71 0 0 1 1.56,3.58 3.08,3.08 0 0 1 2.94,1.89 l 0.94,2 a 3.77,3.77 0 0 1 3.49,1.47 c 1.18,1.85 -0.29,8 -0.29,8 0,0 -4.35,9.27 -5.69,10.67 a 65.22,65.22 0 0 0 -4,5.17 z"
         fill="#f9b499"
         id="path1136" />
      <path
         d="m 503.39,281.08 a 10.89,10.89 0 0 1 -0.5,2.71 28.72,28.72 0 0 1 -2.18,6.33 39.62,39.62 0 0 0 -3.24,5.75 11.34,11.34 0 0 0 -0.47,2.65 4.06,4.06 0 0 1 0,-2.79 28.82,28.82 0 0 1 3.1,-5.89 40.56,40.56 0 0 0 2.32,-6.14 12.52,12.52 0 0 1 0.97,-2.62 z"
         fill="#ff9a6c"
         id="path1138" />
      <path
         d="m 509.34,283.6 c 0.09,0 0.22,0.27 0.17,0.71 a 5.2,5.2 0 0 1 -0.48,1.6 c -0.53,1.18 -1.11,2 -1.25,2 -0.14,0 0.13,-1.09 0.66,-2.22 0.25,-0.56 0.49,-1.06 0.63,-1.47 0.14,-0.41 0.18,-0.6 0.27,-0.62 z"
         fill="#ff9a6c"
         id="path1140" />
      <path
         d="m 515,287.3 c 0.18,0 0.3,0.75 0.15,1.63 -0.15,0.88 -0.5,1.47 -0.66,1.47 -0.16,0 -0.12,-0.76 0,-1.6 0.12,-0.84 0.4,-1.5 0.51,-1.5 z"
         fill="#ff9a6c"
         id="path1142" />
      <path
         d="m 519.1,291 c 0.16,0 0.57,0.8 0.38,1.9 -0.19,1.1 -0.88,1.77 -1,1.65 -0.12,-0.12 0.21,-0.82 0.36,-1.76 0.15,-0.94 0.08,-1.79 0.26,-1.79 z"
         fill="#ff9a6c"
         id="path1144" />
      <polygon
         points="506.97,306.63 496.6,309.19 491.24,327.58 509.6,339.07 513.95,312.8 "
         fill="#f9b499"
         id="polygon1146" />
      <path
         d="m 405.86,193.51 -0.22,70.12 30.09,1.48 0.88,-17.06 c 0,0 10.68,2.12 13.43,-7.8 1.77,-6.33 1.32,-55.34 1.32,-55.34 z"
         fill="#ffbf9d"
         id="path1148" />
      <path
         d="m 455.33,189.82 c -4.75,1.35 -5.78,9.1 -5.78,9.1 l -7.36,16.41 c -3.8,-2.94 -8.83,-2.79 -9.84,3.86 -0.69,4.8 5.29,5.78 5.29,5.78 -3.49,5.89 -5.89,10.72 -10.91,16.35 -5.49,6.1 -8.56,6.7 -14.51,6.81 h -6.56 c 0,0 -3.21,-10.43 -9.15,-36.49 -6.59,-28.91 27.6,-25.18 33.87,-32.56 10.32,-12.03 39.89,6.45 24.95,10.74 z"
         fill="#263238"
         id="path1150" />
      <path
         d="m 397.07,214.38 c -5.53,-3.73 -6,-14.15 -2.81,-20.4 a 20.11,20.11 0 0 1 17.08,-10.61 8.15,8.15 0 0 0 2.78,-0.31 7.81,7.81 0 0 0 2.95,-2.84 c 5,-6.44 9.82,-12.77 19.05,-12.77 a 10.48,10.48 0 0 1 5.81,1.47 9.21,9.21 0 0 1 3.49,4.61 20.39,20.39 0 0 1 5.4,-1.94 6.69,6.69 0 0 1 5.42,1.32 4.1,4.1 0 0 1 0.84,5.2 6.54,6.54 0 0 1 6.55,5.45 c 0.49,3.08 -3.92,5.24 -4.42,5.49 0,0 2.42,5.07 -3.35,8.1 -2.33,1.22 -5.35,-0.25 -5.7,-0.43"
         fill="#5670a0"
         id="path1152" />
      <path
         d="m 419,221.17 a 14.22,14.22 0 0 1 -2.29,10.2 c -0.21,-0.1 0.75,-2.25 1.38,-5.05 0.63,-2.8 0.72,-5.15 0.91,-5.15 z"
         fill="#455a64"
         id="path1154" />
      <path
         d="m 422.68,217.68 a 12.63,12.63 0 0 1 -0.28,5.12 13,13 0 0 1 -1.59,4.89 28.3,28.3 0 0 1 0.84,-5 26.32,26.32 0 0 1 1.03,-5.01 z"
         fill="#455a64"
         id="path1156" />
      <path
         d="m 433.11,206.1 c 0,0.11 -0.79,0.72 -1.88,2 a 19.2,19.2 0 0 0 -3.23,5.6 45.75,45.75 0 0 0 -1.8,6.3 10.27,10.27 0 0 1 -0.75,2.65 9.16,9.16 0 0 1 0.22,-2.76 30.66,30.66 0 0 1 1.62,-6.47 16.07,16.07 0 0 1 3.55,-5.69 5.75,5.75 0 0 1 2.27,-1.63 z"
         fill="#455a64"
         id="path1158" />
      <path
         d="m 437.32,198.22 a 4.17,4.17 0 0 1 0.57,1.9 12.46,12.46 0 0 1 -0.25,4.79 12.88,12.88 0 0 1 -2,4.34 4.75,4.75 0 0 1 -1.47,1.48 26.78,26.78 0 0 0 2.69,-5.89 26.74,26.74 0 0 0 0.46,-6.62 z"
         fill="#455a64"
         id="path1160" />
      <path
         d="m 401.4,215.73 c -0.1,0.19 -1,-0.13 -2.06,-0.7 -1.06,-0.57 -1.78,-1.2 -1.68,-1.39 0.1,-0.19 1,0.13 2.06,0.72 1.06,0.59 1.78,1.2 1.68,1.37 z"
         fill="#455a64"
         id="path1162" />
      <path
         d="m 415.94,208.25 c 0.2,0 0,1.47 -0.86,3.05 -0.86,1.58 -2.18,2.34 -2.3,2.18 -0.12,-0.16 0.8,-1.16 1.65,-2.58 0.85,-1.42 1.3,-2.71 1.51,-2.65 z"
         fill="#455a64"
         id="path1164" />
      <path
         d="m 420.41,205.85 a 6,6 0 0 1 -1.34,3.64 c -1.21,1.84 -2.72,2.81 -2.84,2.65 -0.12,-0.16 1.07,-1.36 2.21,-3.06 1.14,-1.7 1.75,-3.3 1.97,-3.23 z"
         fill="#455a64"
         id="path1166" />
      <path
         d="m 442.63,176.48 a 16.91,16.91 0 0 0 -1.66,-1 11.07,11.07 0 0 0 -5,-1.3 13.46,13.46 0 0 0 -7.36,2 18.25,18.25 0 0 0 -6.3,7 31.17,31.17 0 0 0 -2.56,6.58 l -0.12,0.44 -0.4,-0.22 a 15.1,15.1 0 0 0 -6.71,-1.7 15.63,15.63 0 0 0 -5.47,0.82 23.44,23.44 0 0 0 -4.42,2.22 4.47,4.47 0 0 1 1,-0.88 13.78,13.78 0 0 1 3.29,-1.78 15.93,15.93 0 0 1 5.63,-1 15.43,15.43 0 0 1 7.05,1.7 l -0.51,0.23 a 30.29,30.29 0 0 1 2.59,-6.74 18.55,18.55 0 0 1 6.49,-7.26 13.67,13.67 0 0 1 7.79,-1.93 10.77,10.77 0 0 1 5.17,1.59 7.19,7.19 0 0 1 1.15,0.91 c 0.25,0.17 0.37,0.3 0.35,0.32 z"
         fill="#455a64"
         id="path1168" />
      <path
         d="m 458.45,180.29 a 1.83,1.83 0 0 1 1.72,0.78 3,3 0 0 1 0.69,2.21 3.36,3.36 0 0 1 -1.79,2.55 5,5 0 0 1 -3.66,0.5 10.49,10.49 0 0 1 -3.77,-1.83 37.36,37.36 0 0 0 -3.64,-2.5 15.07,15.07 0 0 0 -4.41,-1.56 18.65,18.65 0 0 0 -9.08,0.62 25.24,25.24 0 0 0 -6.71,3.4 67.88,67.88 0 0 0 -5.35,4.54 8.1,8.1 0 0 1 1.2,-1.48 28.12,28.12 0 0 1 3.84,-3.47 23.89,23.89 0 0 1 6.8,-3.65 18.77,18.77 0 0 1 9.43,-0.69 15.56,15.56 0 0 1 4.67,1.64 35.75,35.75 0 0 1 3.74,2.61 10.31,10.31 0 0 0 3.5,1.8 4.4,4.4 0 0 0 3.24,-0.36 2.93,2.93 0 0 0 1.59,-2.09 2.61,2.61 0 0 0 -2,-2.94 z"
         opacity="0.2"
         id="path1170" />
      <path
         d="m 381.48,361.2 c -1.36,5.89 -8.11,9.07 -12.28,13.55 -4.17,4.48 -10.31,8.14 -16.2,6.41 a 14.34,14.34 0 0 1 -8.41,-8.13 c -3.9,-8.51 -5.65,-20.21 -2.74,-29.1 2.91,-8.89 3.38,-15.42 7.13,-27.73 l 23.12,8.94 4.83,-5.89 c 0,0 5.56,37.62 4.55,41.95 z"
         fill="#3279fc"
         id="path1172" />
      <path
         d="m 457.87,310.5 c 0,0 13.64,51.45 25,58.42 A 19.57,19.57 0 0 0 493,372 18,18 0 0 0 510.49,358 l 3.12,-40.93 -17.14,-7 -1.47,6.63 -4,-11.42 z"
         fill="#3279fc"
         id="path1174" />
      <path
         d="m 468.71,347.92 -0.13,-33.34 28.21,6.95 c 0,0 -7.36,-39.31 -19.47,-50.87 -8.83,-8.35 -41.58,-16.2 -41.58,-16.2 l -42.6,2 c 0,0 1.18,0.28 -9.82,5.22 -10,4.49 -22,10.46 -26,20.73 l -8.83,35.59 19.71,7.18 0.66,1.61 3.08,43.81 c -6,21.48 3.19,30.18 3.19,30.18 0,0 -0.88,11.67 0,14.43 0,0 66.66,1.48 82.74,0 13.14,-1.22 15.05,-1.59 15.05,-1.59 a 21.84,21.84 0 0 0 -1,-15.6 z"
         fill="#3279fc"
         id="path1176" />
      <path
         d="m 391.71,260.07 c 0,0 -7.07,-21.65 -7.73,-36.14 a 53.88,53.88 0 0 1 11.08,-35.44 48.16,48.16 0 0 1 35.92,-19 c 11.12,-0.76 14.17,0.33 17.81,6.8 13.12,23.4 14,43.88 9.17,59.22 -4.83,15.34 -8.44,24.67 -8.44,24.67 z"
         fill="#3279fc"
         id="path1178" />
      <g
         opacity="0.3"
         id="g1182">
        <path
           d="m 393.36,224.83 c 12.95,7.48 28.61,10.41 43.53,9.5 -23.91,-10.93 -29.35,-9.69 -43.53,-9.5"
           id="path1180" />
      </g>
      <g
         opacity="0.3"
         id="g1186">
        <path
           d="m 371.75,368.06 c -7.47,-19.24 -9.74,-40.73 -5.19,-60.87 z"
           id="path1184" />
      </g>
      <g
         opacity="0.3"
         id="g1190">
        <path
           d="m 468.56,344.5 c 3.51,-7.36 3.51,-15.34 2.95,-23.56 a 146.84,146.84 0 0 0 -4.42,-24.26 z"
           id="path1188" />
      </g>
      <g
         opacity="0.3"
         id="g1194">
        <path
           d="m 505.08,350.39 a 12.61,12.61 0 0 0 2.39,-8.65 28,28 0 0 0 -2.39,-8.84 72,72 0 0 0 -8.73,-15.36 c 0.07,6.16 3.78,11.58 5.89,17.35 a 45.58,45.58 0 0 1 2.62,15.61"
           id="path1192" />
      </g>
      <g
         opacity="0.3"
         id="g1198">
        <path
           d="m 457.87,400.81 a 80.6,80.6 0 0 1 -27.56,4.69 c -17.29,-0.48 -34.89,0.54 -51.54,-3.92 a 531.45,531.45 0 0 0 79.1,-0.77 z"
           id="path1196" />
      </g>
      <g
         opacity="0.3"
         id="g1202">
        <path
           d="m 459.07,386.09 a 53,53 0 0 1 -51.73,-25 c 0,0 15.25,12.51 28.08,17.67 a 157.21,157.21 0 0 0 23.65,7.33 z"
           id="path1200" />
      </g>
      <path
         d="m 89.08,173.33 h 261.2 c 0,0 2.42,-96.43 -72.89,-68.88 0,0 -4.13,-44.31 -41.79,-55.22 -20.49,-5.94 -42.55,0.89 -56.73,16.83 -7.08,8 -15.31,19.36 -23.89,35.63 0,0 -14,-14.87 -26.9,-9.34 a 15.78,15.78 0 0 0 -9.15,12.65 30.54,30.54 0 0 0 2,15 c 0,0 -39.25,-8.2 -31.85,53.33 z"
         fill="#bcbec0"
         id="path1204"
         style="fill:#5670a0;fill-opacity:1" />
      <rect
         x="196.58"
         y="79.379997"
         width="39.490002"
         height="2.3900001"
         fill="#ffffff"
         id="rect1206" />
      <rect
         x="196.58"
         y="91.410004"
         width="39.490002"
         height="2.3900001"
         fill="#ffffff"
         id="rect1208" />
      <rect
         x="196.58"
         y="103.44"
         width="39.490002"
         height="2.3900001"
         fill="#ffffff"
         id="rect1210" />
      <rect
         x="196.58"
         y="115.47"
         width="39.490002"
         height="2.3900001"
         fill="#ffffff"
         id="rect1212" />
      <rect
         x="215.53"
         y="134.16"
         width="1.59"
         height="4.77"
         fill="#d1d3d4"
         id="rect1214" />
      <path
         d="m 217.12,199.12 h -1.59 v -10 h 1.59 z m 0,-20.06 h -1.59 V 169 h 1.59 z m 0,-20.06 h -1.59 v -10 h 1.59 z"
         fill="#d1d3d4"
         id="path1216" />
      <polygon
         points="217.12,209.15 217.12,213.13 221.09,213.13 221.09,214.72 215.53,214.72 215.53,209.15 "
         fill="#d1d3d4"
         id="polygon1218" />
      <path
         d="m 315.53,214.72 h -9.45 v -1.59 h 9.45 z m -18.89,0 h -9.44 v -1.59 h 9.44 z m -18.89,0 h -9.44 v -1.59 h 9.44 z m -18.88,0 h -9.45 v -1.59 h 9.45 z m -18.89,0 h -9.44 v -1.59 H 240 Z"
         fill="#d1d3d4"
         id="path1220" />
      <rect
         x="324.97"
         y="213.13"
         width="4.77"
         height="1.59"
         fill="#d1d3d4"
         id="rect1222" />
    </g>
    <g
       id="g974"
       transform="matrix(0.26458333,0,0,0.26458333,34.403136,-19.931714)">
      <path
         d="m -6.1464395,120.57394 a 10.85509,10.85509 0 0 1 7.88971,12.92233 10.413,10.413 0 0 1 -0.545,1.633 l 27.7671005,25.75113 -18.85561,4.43182 -23.47735,-25.13314 a 10.825,10.825 0 0 1 -5.53458,-12.00093 10.35947,10.35947 0 0 1 12.4798795,-7.674 q 0.13839,0.033 0.27585,0.0698 z"
         fill="#a0616a"
         id="path839"
         style="fill:#f9b499;fill-opacity:1" />
      <path
         d="m 19.800191,149.82476 -10.8277505,14.6383 27.1315105,25.65122 a 15.61912,15.61912 0 0 0 14.73492,3.801 v 0 a 14.96552,14.96552 0 0 0 11.10269,-14.157 l 0.71809,-59.0455 a 16.13613,16.13613 0 0 0 -14.94676,-16.40023 v 0 a 15.30328,15.30328 0 0 0 -16.43023,14.0865 q -0.0182,0.23746 -0.0291,0.4754 a 15.69875,15.69875 0 0 0 0.009,1.69127 l 3.29941,42.70726 z"
         fill="#e6e6e6"
         id="path841"
         style="fill:#5670a0;fill-opacity:1" />
      <path
         d="m 133.44702,16.285614 c 34.54326,68.68508 -34.176199,59.09863 -44.579179,58.23171 -20.03949,-1.66995 -37.34407,3.73441 -35.47686,-42.01207 0.82009,-20.09221 22.83673,-35.60891 42.94567,-35.60891 20.108939,0 28.075409,1.42434 37.110369,19.38927 z"
         fill="#2f2e41"
         id="path857"
         style="fill:#5670a0;fill-opacity:1" />
      <polygon
         points="428.26,489.802 428.263,545.794 442.779,545.793 449.685,489.801 "
         fill="#a0616a"
         id="polygon859"
         transform="translate(-303.67297,-3.103656)"
         style="fill:#f9b499;fill-opacity:1" />
      <path
         d="m 143.93657,543.997 v -9.84126 l -3.81631,0.23312 -15.53489,0.92029 -3.59539,0.22085 -2.74865,32.95956 -0.14724,1.767 h 10.30746 l 0.33134,-1.75472 1.497,-7.97607 3.86537,7.97607 0.84668,1.75472 h 27.32725 a 6.17461,6.17461 0 0 0 6.13543,-6.14771 c 1.15357,-5.38683 -21.57212,-17.03183 -24.46805,-20.11185 z"
         fill="#2f2e41"
         id="path861"
         style="fill:#5670a0;fill-opacity:1" />
      <polygon
         points="362.98,489.802 362.977,545.794 348.461,545.793 341.555,489.801 "
         fill="#a0616a"
         id="polygon863"
         transform="translate(-303.67297,-3.103656)"
         style="fill:#f9b499;fill-opacity:1" />
      <path
         d="m 39.957471,543.997 v -9.84126 l 3.81632,0.23312 15.53488,0.92029 3.5954,0.22085 2.74864,32.95956 0.14725,1.767 h -10.30746 l -0.33134,-1.75472 -1.497,-7.97607 -3.86537,7.97607 -0.84668,1.75472 h -27.32722 a 6.17461,6.17461 0 0 1 -6.13544,-6.14771 c -1.15354,-5.38683 21.5721,-17.03183 24.46802,-20.11185 z"
         fill="#2f2e41"
         id="path865"
         style="fill:#5670a0;fill-opacity:1" />
      <path
         d="m 37.645411,262.38331 c 0,0 -9.98527,55.897 -4.60859,87.38825 0.4102,7.51406 -5.43576,30.08985 -4.5898,56.51406 1.39053,43.4341 9.599,96.9371 7,109 l 28,-2 c 0,0 0.932,-11.79615 2.49784,-29.88849 0.18726,-2.16368 -2.70271,-4.77714 -2.49784,-7.11151 0.23909,-2.72416 3.57611,-5.19842 3.83768,-8.12728 q 0.32492,-3.638 0.67165,-7.46265 c 0.18386,-2.02725 -2.7018,-3.31543 -2.50933,-5.41007 0.23842,-2.59472 3.55722,-6.01277 3.808,-8.69619 1.525,-16.315 3.271,-34.1192 5.139,-51.58371 1.22722,-11.4742 2.50706,-22.80179 3.81137,-33.46414 0.2829,-2.31256 -2.04328,-5.01128 -1.75837,-7.256 0.29124,-2.29451 3.1936,-4.13334 3.48633,-6.34574 0.41154,-3.11029 4.10063,-3.73312 4.51367,-6.65426 0.33126,-2.34269 -2.61364,-7.02024 -2.2824,-9.22308 3.24158,-21.55753 6.46132,-36.03013 9.24749,-35.82614 2.29862,0.16829 4.94121,10.13642 7.6757,25.70712 0.345,1.96443 4.011799,4.20775 4.359209,6.3421 0.36053,2.215 -2.59827,4.32717 -2.23625,6.70663 0.38512,2.53131 -1.14924,5.5979 -0.76375,8.29337 0.37242,2.604 2.66471,4.83186 3.03622,7.5683 4.17483,30.75042 8.25376,69.21526 11.36529,100.8841 0.2434,2.47728 3.36735,5.16044 3.59849,7.5476 0.24471,2.52726 -2.40415,4.75267 -2.17414,7.1629 0.314,3.29031 4.88972,6.80123 5.17414,9.8371 0.28149,3.00462 -3.728,5.537 -3.478,8.25154 1.55427,16.87209 2.478,27.74846 2.478,27.74846 l 28,1 c 0,0 -0.96394,-156.42855 3.64465,-172.17416 4.60859,-15.74561 1.53621,-72.42987 -9.98522,-78.72815 -11.52143,-6.29828 -104.461039,4e-5 -104.461039,4e-5 z"
         fill="#2f2e41"
         id="path867"
         style="fill:#3279fc;fill-opacity:1" />
      <path
         d="m 77.181191,78.799494 -3.40157,17.00787 -34.3326,11.478256 12.30106,92.83671 -13.24265,60.02438 c -3.41565,3.957 -4.72113,7.94305 -2.64209,11.97564 l 112.583679,1.16327 c 2.12024,-4.05035 2.84571,-8.03936 0,-12 l -5,-8 -5,-12 1,-5 -2.52944,-10.87181 -1.92315,-6.80477 -3.24635,-11.48671 20.19344,-93.40348 -35.98448,-13.943006 -6.46093,-20.97638 z"
         fill="#e6e6e6"
         id="path869"
         style="fill:#5670a0;fill-opacity:1" />
      <circle
         cx="89.720573"
         cy="42.333805"
         fill="#a0616a"
         id="circle871"
         r="28.088909"
         style="fill:#f9b499;fill-opacity:1" />
      <path
         d="m 126.2119,31.571654 c -3.37029,3.333 -6.0871,5.60161 -11.20322,5.60161 -12.9397,2.9595 -25.253909,4.668 -36.130389,3.56637 a 13.4584,13.4584 0 0 0 -1.167,-8.07568 10.219,10.219 0 0 1 -4.20121,7.27274 43.41493,43.41493 0 0 1 -8.91588,-2.76343 18.59712,18.59712 0 0 1 -11.10054,-3.65976 C 48.013421,9.874764 68.748731,1.7803941 90.268241,4.497214 a 40.98137,40.98137 0 0 1 7.62751,-0.72824 c 16.039269,0 26.411619,10.02693 28.316149,27.80268 z"
         fill="#2f2e41"
         id="path873"
         style="fill:#5670a0;fill-opacity:1" />
      <path
         d="M 120.56702,286.46562 H 67.567021 a 13,13 0 0 0 0,26 h 52.999999 a 13,13 0 0 0 0,-26 z"
         fill="#6c63ff"
         id="path915"
         style="fill:#3279fc;fill-opacity:1" />
      <path
         d="m 89.853561,126.57394 a 10.85509,10.85509 0 0 1 7.88971,12.92233 10.413,10.413 0 0 1 -0.545,1.633 l 27.767099,25.75113 -18.85561,4.43182 -23.477349,-25.13314 a 10.825,10.825 0 0 1 -5.53458,-12.00093 10.35947,10.35947 0 0 1 12.47988,-7.674 q 0.13839,0.033 0.27585,0.0698 z"
         fill="#a0616a"
         id="path921"
         style="fill:#f9b499;fill-opacity:1" />
      <path
         d="m 115.80019,155.82476 -10.82775,14.6383 27.13151,25.65122 a 15.61912,15.61912 0 0 0 14.73492,3.801 v 0 a 14.96552,14.96552 0 0 0 11.10269,-14.157 l 0.71809,-59.0455 a 16.13613,16.13613 0 0 0 -14.94676,-16.40023 v 0 a 15.30328,15.30328 0 0 0 -16.43023,14.0865 q -0.0182,0.23746 -0.0291,0.4754 a 15.69875,15.69875 0 0 0 0.009,1.69127 l 3.29941,42.70726 z"
         fill="#e6e6e6"
         id="path923"
         style="fill:#5670a0;fill-opacity:1" />
    </g>
    <g
       id="g2016"
       transform="matrix(0.08416384,0,0,0.08416384,-4.3561679,89.697784)">
      <g
         id="g1954">
	<path
   style="fill:#91dc5a"
   d="M 245.168,116.773 V 0 l -9.516,5.148 c -46.067,24.921 -73.57,66.65 -73.57,111.625 0,41.446 23.37,80.123 63.086,105.443 V 116.773 Z"
   id="path1936" />

	<path
   style="fill:#6dc82a"
   d="m 265.168,116.773 v 105.443 c 39.716,-25.319 63.086,-63.997 63.086,-105.443 0,-44.975 -27.503,-86.704 -73.57,-111.625 L 245.168,0 v 116.773 z"
   id="path1938" />

	<path
   style="fill:#91dc5a"
   d="m 372.786,238.221 85.608,-50.888 -9.288,-5.55 c -20.011,-11.957 -41.657,-18.277 -62.599,-18.277 -17.854,0 -34.414,4.462 -49.216,13.261 -29.396,17.474 -47.198,49.969 -48.988,88.406 l 74.263,-44.144 z"
   id="path1940" />

	<path
   style="fill:#6dc82a"
   d="m 458.831,198.143 -0.438,-10.811 -85.608,50.888 10.219,17.192 -74.251,44.137 c 16.888,8.184 34.602,12.476 51.84,12.476 17.854,0 34.415,-4.462 49.217,-13.261 32.464,-19.297 50.789,-56.912 49.021,-100.621 z"
   id="path1942" />

	<path
   style="fill:#6dc82a"
   d="m 117.549,238.221 -85.608,-50.888 -0.438,10.811 c -1.768,43.709 16.557,81.324 49.021,100.622 14.803,8.8 31.362,13.261 49.217,13.261 17.238,0 34.952,-4.292 51.84,-12.476 L 107.33,255.414 Z"
   id="path1944" />

	<path
   style="fill:#91dc5a"
   d="m 127.769,221.029 74.263,44.144 c -1.789,-38.438 -19.592,-70.932 -48.988,-88.406 -14.803,-8.8 -31.362,-13.261 -49.216,-13.261 -20.941,0 -42.588,6.32 -62.599,18.277 l -9.288,5.55 85.608,50.888 z"
   id="path1946" />

	<polygon
   style="fill:#00665a"
   points="225.168,278.926 202.032,265.173 127.769,221.029 117.549,238.221 107.33,255.413 181.582,299.55 225.168,325.459 225.168,354.537 245.168,354.537 265.168,354.537 265.168,325.459 308.754,299.55 383.005,255.413 372.786,238.221 362.567,221.029 288.304,265.173 265.168,278.926 265.168,222.215 265.168,116.773 245.168,116.773 225.168,116.773 225.168,222.215 "
   id="polygon1948" />

	<polygon
   style="fill:#3279fc;fill-opacity:1"
   points="245.168,354.537 225.168,354.537 152.024,354.537 165.56,490.335 245.168,490.335 "
   id="polygon1950" />

	<polygon
   style="fill:#5670a0;fill-opacity:1"
   points="245.168,354.537 245.168,490.335 324.775,490.335 338.311,354.537 265.168,354.537 "
   id="polygon1952" />

</g>
      <g
         id="g1956">
</g>
      <g
         id="g1958">
</g>
      <g
         id="g1960">
</g>
      <g
         id="g1962">
</g>
      <g
         id="g1964">
</g>
      <g
         id="g1966">
</g>
      <g
         id="g1968">
</g>
      <g
         id="g1970">
</g>
      <g
         id="g1972">
</g>
      <g
         id="g1974">
</g>
      <g
         id="g1976">
</g>
      <g
         id="g1978">
</g>
      <g
         id="g1980">
</g>
      <g
         id="g1982">
</g>
      <g
         id="g1984">
</g>
    </g>
  </g>
</svg>
